<?xml version="1.0" encoding="utf-8"?>
<!-- Generator: Adobe Illustrator 24.1.1, SVG Export Plug-In . SVG Version: 6.00 Build 0)  -->
<svg version="1.1" id="Layer_1" xmlns="http://www.w3.org/2000/svg" xmlns:xlink="http://www.w3.org/1999/xlink" x="0px" y="0px"
	 viewBox="0 0 24 24" style="enable-background:new 0 0 24 24;" xml:space="preserve">
<style type="text/css">
	.st0{fill-rule:evenodd;clip-rule:evenodd;fill:#AAAAAA;}
</style>
<path class="st0" d="M15.9,1.7c1.2-1.2,3.1-1.2,4.2,0l2.2,2.2c1.2,1.2,1.2,3.1,0,4.2l-14,14C7.7,22.7,7,23,6.2,23H2
	c-0.6,0-1-0.4-1-1v-4.2c0-0.8,0.3-1.6,0.9-2.1L15.9,1.7z M18.7,3.1c-0.4-0.4-1-0.4-1.4,0L15.4,5L19,8.6l1.9-1.9c0.4-0.4,0.4-1,0-1.4
	L18.7,3.1z M17.6,10L14,6.4L3.3,17.1C3.1,17.3,3,17.6,3,17.8V21h3.2c0.3,0,0.5-0.1,0.7-0.3L17.6,10z"/>
</svg>
